<svg width="20" height="20" xmlns="http://www.w3.org/2000/svg"><g fill-rule="nonzero" fill="none"><rect fill="#3B5998" width="20" height="20" rx="4"/><path d="M12.67 4.002L11.26 4C9.673 4 8.65 5.149 8.65 6.927v1.349H7.23c-.122 0-.221.108-.221.242v1.955c0 .134.1.243.222.243h1.418v4.933c0 .134.1.243.222.243h1.851c.123 0 .222-.11.222-.243v-4.933h1.66c.122 0 .221-.109.221-.243V8.518a.255.255 0 00-.064-.171.213.213 0 00-.157-.071h-1.66V7.132c0-.55.12-.829.776-.829h.95c.123 0 .222-.109.222-.243V4.245c0-.134-.1-.242-.222-.243z" fill="#FFF"/></g></svg>