<svg width="20" height="20" xmlns="http://www.w3.org/2000/svg"><g fill-rule="nonzero" fill="none"><rect fill="#1A1A1A" width="20" height="20" rx="4"/><path fill="#0F9" d="M5.152 5.366l1.177-.03.244 9.183-1.177.031z"/><path fill="#93F" d="M13.454 7.502l1.178-.031.181 6.829-1.178.031z"/><path fill="#0CF" d="M5.396 14.548l9.417-.25.031 1.179-9.417.25z"/><path fill="#FF9" d="M5.121 4.19l5.886-.157.031 1.178-5.886.156z"/><path fill="#F66" d="M11.1 7.563l3.533-.094-.031-1.177-1.178.031-.031-1.177-1.177.031L12.185 4l-1.178.03z"/><path fill="#4C197F" d="M13.455 7.5l1.178-.03.032 1.178-1.178.03z"/></g></svg>