<svg width="20" height="20" xmlns="http://www.w3.org/2000/svg" xmlns:xlink="http://www.w3.org/1999/xlink"><defs><path d="M.683.683L6 6 11.317.683A.4.4 0 0112 .966V7.6a.4.4 0 01-.4.4H.4a.4.4 0 01-.4-.4V.966A.4.4 0 01.683.683z" id="a"/></defs><g fill="none" fill-rule="evenodd"><rect fill="#1A1A1A" fill-rule="nonzero" width="20" height="20" rx="4"/><path fill="#FFF" d="M6 4h8v10H6z"/><g transform="translate(4 8)"><mask id="b" fill="#fff"><use xlink:href="#a"/></mask><g stroke-width=".6"><path stroke="#FFF" d="M11.33 1.095L6.003 6.42.32.906a.1.1 0 00-.02.06V7.6a.1.1 0 00.1.1h11.2a.1.1 0 00.1-.094l-.37-6.511z" stroke-linejoin="square" fill="#FFF"/><path stroke="#1A1A1A" d="M11.887.327a.7.7 0 00-.782.144L5.997 5.579.535.279A.7.7 0 00-.3.965V7.6a.698.698 0 00.7.7h11.2a.698.698 0 00.7-.71L11.887.327z"/></g><path stroke="#1A1A1A" stroke-width=".6" stroke-linecap="square" mask="url(#b)" d="M0 8l5.657-5.657M12 8L6.343 2.343"/></g><path fill="#1A1A1A" d="M7 5h4v1H7zM7 6.8h6v1H7zM7 8.6h6v1H7zM7 10.4h6v1H7z"/></g></svg>