<svg xmlns="http://www.w3.org/2000/svg" viewBox="0 0 68.51 12.06"><title>Asset 1</title><g id="Layer_2" data-name="Layer 2"><g id="Layer_1-2" data-name="Layer 1"><g id="One_Color" data-name="One Color"><path d="M30.39,2.23A2.32,2.32,0,0,0,29.55,0h5.1L32.37,9.4h5.31A12.86,12.86,0,0,0,37.1,12H28Z"/><path d="M2.39,2.24A2.31,2.31,0,0,0,1.57,0H6.48L9.73,7.66,11.61,0h3.62L12.29,12H8.22L5.28,5.13,3.6,12H0Z"/><path d="M16.72,2.24A2.37,2.37,0,0,0,15.87,0H21L19.85,4.68H24.2L25.32,0h3.51L26,12H22.5l1.1-4.62H19.21L18.1,12H14.38Z"/><path d="M39.14,9.54A12.9,12.9,0,0,0,38.58,12"/><path d="M38.58,12h2.8A12.91,12.91,0,0,1,42,9.46H39.2v0"/><path d="M48,11.78H46.28a4.66,4.66,0,0,1-1.57-.22,2.55,2.55,0,0,1-1-.6,2.08,2.08,0,0,1-.56-.92A3.85,3.85,0,0,1,43,8.87a5.61,5.61,0,0,1,0-.58,3.44,3.44,0,0,1,.09-.62,6.47,6.47,0,0,1,.59-1.87,3.7,3.7,0,0,1,1-1.19A3.55,3.55,0,0,1,46,4a7.46,7.46,0,0,1,1.76-.18h2L48.93,6H47.49a1.6,1.6,0,0,0-1.18.43,2.84,2.84,0,0,0-.64,1.41,3.75,3.75,0,0,0-.1.82,1.26,1.26,0,0,0,.09.54.86.86,0,0,0,.23.33.74.74,0,0,0,.34.15,1.48,1.48,0,0,0,.42,0h2.12Z"/><path d="M57,8a7.93,7.93,0,0,1-.57,1.91,3.6,3.6,0,0,1-.9,1.25,3.06,3.06,0,0,1-1.25.68,5.68,5.68,0,0,1-1.64.21,3.71,3.71,0,0,1-2.49-.72,2.81,2.81,0,0,1-.83-2.23,7.71,7.71,0,0,1,.13-1.35,8,8,0,0,1,.55-2,3.84,3.84,0,0,1,.9-1.25,3.28,3.28,0,0,1,1.24-.68,6.09,6.09,0,0,1,1.64-.2,3.73,3.73,0,0,1,2.5.72,2.85,2.85,0,0,1,.83,2.25A7.18,7.18,0,0,1,57,8ZM52.82,9.86a2.32,2.32,0,0,0,.59-.07.89.89,0,0,0,.41-.28,1.88,1.88,0,0,0,.28-.59c.09-.33.17-.66.23-1a6.65,6.65,0,0,0,.13-1.17A1,1,0,0,0,54.25,6a.92.92,0,0,0-.64-.19,1.86,1.86,0,0,0-.57.07.94.94,0,0,0-.42.29,1.69,1.69,0,0,0-.3.6,8.52,8.52,0,0,0-.23,1A7.3,7.3,0,0,0,52,8.91a1,1,0,0,0,.22.75A1,1,0,0,0,52.82,9.86Z"/><path d="M62.77,11.8l.81-4.18-1.24,2H60.4l-.44-2-.82,4.16H56.79l1.55-7.94H61l.84,3.49L64,3.86h2.66L65.12,11.8Z"/><path d="M67.34,4.76h-.16V4h-.25V3.88h.66V4h-.25Z"/><path d="M68.51,4.76h-.15V4.15c0-.07,0,.12-.06.19l-.15.41H68l-.14-.41v.42h-.15l.06-.85H68l0,.39.06.2a.25.25,0,0,1,.07-.2l.15-.42h.17Z"/></g></g></g></svg>