<svg width="20" height="20" xmlns="http://www.w3.org/2000/svg"><g fill-rule="nonzero" fill="none"><rect fill="#1A1A1A" width="20" height="20" rx="4"/><path d="M10.632 12.059c.955 0 1.755.707 1.858 1.617l.168 1.705a.563.563 0 01-.568.606H7.845c-.335 0-.606-.278-.568-.606l.168-1.705c.116-.922.916-1.617 1.871-1.617zM9.974 4c3.29 0 5.974 2.627 5.987 5.874 0 1.945-.967 3.663-2.451 4.724l-.104-.985c-.012-.038-.012-.064-.012-.089a4.885 4.885 0 001.651-3.663c0-2.741-2.27-4.964-5.07-4.964-2.8 0-5.072 2.223-5.059 4.964 0 1.453.632 2.754 1.652 3.663-.013.013-.013.038-.013.063l-.103.998C4.968 13.525 4 11.806 4 9.861 4 6.627 6.684 4 9.974 4zm0 2.046c2.142 0 3.884 1.706 3.91 3.815a3.72 3.72 0 01-.955 2.488 2.697 2.697 0 00-.632-.631 2.893 2.893 0 00.67-1.844c0-1.605-1.328-2.918-2.98-2.918s-2.98 1.313-2.98 2.918c0 .694.245 1.339.67 1.844a2.697 2.697 0 00-.632.631 3.681 3.681 0 01-.955-2.488c0-2.11 1.742-3.815 3.884-3.815zm0 2.085c.976 0 1.768.774 1.768 1.73s-.792 1.73-1.768 1.73-1.768-.774-1.768-1.73.792-1.73 1.768-1.73z" fill="#FFF"/></g></svg>