<svg width="20" height="20" xmlns="http://www.w3.org/2000/svg"><g fill-rule="nonzero" fill="none"><rect fill="#FFEB3B" width="20" height="20" rx="4"/><path d="M14.194 13.504c.49-.078 1.512-.263 1.54-.757a.27.27 0 00-.224-.284c-1.51-.254-2.462-1.993-2.315-2.34.106-.252.578-.35.786-.431.996-.4.567-1.083-.022-1.083-.265 0-.579.288-.869.152.09-1.53.25-2.607-.832-3.649-1.405-1.35-4.254-1.193-5.226 1.026-.289.658-.178 1.861-.132 2.623-.204.092-.497-.007-.699-.103-.51-.243-1.38.554-.19 1.033.516.206 1.004.265.731.829-.029.054-.195.465-.583.925-1.121 1.328-2.142.785-1.874 1.421v.001c.17.405 1.075.567 1.512.637.12.23.033.755.442.755.22 0 .64-.182 1.296-.07.886.15 1.891 2.023 4.116.425.48-.345.817-.6 1.837-.395.74.145.534-.374.706-.715z" fill="#FFF"/><path d="M9.969 15.49c.008.002-.017.003-.043.003-.79 0-1.312-.375-1.73-.677-1.532-1.103-2.222.571-2.59-1.09-2.118-.377-1.702-1.42-1.164-1.51.62-.105 1.127-.459 1.527-.932.262-.31.645-.955.598-1.066-.05-.12-.502-.236-.648-.295-1.505-.607-.434-1.88.389-1.491.144.07.252.099.33.11-.047-.749-.126-1.84.166-2.504 1.182-2.702 5.197-2.719 6.384 0 .293.666.212 1.755.167 2.494.244-.061.516-.285.95-.105.679.247.848 1.163-.416 1.56-.115.037-.423.137-.463.232-.058.14.722 1.763 2.126 1.998a.52.52 0 01.432.545c-.036.634-.965.85-1.595.963-.093.418-.161.776-.622.776-.789-.046-1.039-.353-1.968.316-.55.394-1.091.72-1.83.673zm1.49-1.044c1.129-.812 1.404-.51 2.307-.444.108 0 .03-.187.263-.724.198-.04 1.315-.197 1.447-.508l-.008-.06c-1.68-.283-2.412-2.007-2.443-2.08-.498-1.027.877-1.018 1.233-1.39.145-.152.041-.285-.134-.348-.299-.124-.399.132-.864.154-.238-.01-.293-.076-.43-.13.111-1.556.264-2.651-.745-3.624-1.275-1.226-3.921-1.118-4.824.946-.272.619-.15 1.871-.1 2.681-.097.018-.367.3-1.068-.037-.192-.091-.864.224.011.577.236.095.769.196.923.567.238.572-.917 2.416-2.503 2.682l-.009.062c.141.336 1.395.492 1.444.507.232.557.082.237.212.684.053.18.496-.176 1.407-.018.953.162 1.886 1.932 3.88.503z" fill="#212121"/></g></svg>