<svg width="20" height="20" xmlns="http://www.w3.org/2000/svg"><g fill-rule="nonzero" fill="none"><rect fill="#1A1A1A" width="20" height="20" rx="4"/><path d="M9.006 8.83v-.455a3.512 3.512 0 00-.476-.034 3.528 3.528 0 00-2.023 6.421 3.517 3.517 0 01-.948-2.404A3.534 3.534 0 019.006 8.83" fill="#00F2EA"/><path d="M9.09 13.97c.868 0 1.576-.69 1.609-1.552l.003-7.686h1.404a2.666 2.666 0 01-.045-.487h-1.918l-.004 7.687a1.613 1.613 0 01-2.357 1.366 1.61 1.61 0 001.307.672m5.64-6.63v-.426c-.516 0-1.021-.15-1.453-.432a2.67 2.67 0 001.453.859" fill="#00F2EA"/><path d="M13.276 6.481a2.657 2.657 0 01-.656-1.749h-.514c.134.719.557 1.35 1.17 1.75M8.53 10.258a1.614 1.614 0 00-1.612 1.612c0 .6.333 1.15.864 1.427a1.602 1.602 0 01-.305-.94c0-.89.722-1.611 1.612-1.612.166 0 .326.027.476.074V8.862a3.512 3.512 0 00-.476-.035c-.028 0-.055.002-.083.003v1.504a1.585 1.585 0 00-.476-.075" fill="#FF004F"/><path d="M14.73 7.34v1.491a4.562 4.562 0 01-2.67-.858v3.898a3.534 3.534 0 01-3.53 3.53c-.752 0-1.45-.237-2.023-.64a3.52 3.52 0 002.582 1.127 3.534 3.534 0 003.53-3.53V8.46c.778.56 1.712.86 2.67.858V7.4c-.193 0-.38-.02-.56-.06" fill="#FF004F"/><path d="M12.06 11.871V7.973a4.56 4.56 0 002.67.858v-1.49a2.67 2.67 0 01-1.454-.86 2.673 2.673 0 01-1.17-1.749h-1.404l-.003 7.687a1.61 1.61 0 01-2.916.88 1.613 1.613 0 01-.865-1.428A1.614 1.614 0 018.53 10.26c.166 0 .325.027.476.075V8.83a3.534 3.534 0 00-3.447 3.528c0 .928.36 1.773.948 2.404a3.51 3.51 0 002.023.64 3.534 3.534 0 003.53-3.53" fill="#FFF"/></g></svg>