<svg width="20" height="20" xmlns="http://www.w3.org/2000/svg"><g fill-rule="nonzero" fill="none"><rect fill="#1DA1F2" width="20" height="20" rx="4"/><path d="M16 6.184a4.82 4.82 0 01-1.414.397 2.518 2.518 0 001.082-1.396c-.475.289-1.002.499-1.563.612A2.43 2.43 0 0012.308 5c-1.59 0-2.757 1.52-2.398 3.1-2.046-.106-3.86-1.11-5.074-2.638-.645 1.135-.335 2.619.761 3.37a2.405 2.405 0 01-1.114-.315c-.027 1.17.79 2.263 1.974 2.507a2.408 2.408 0 01-1.112.043c.313 1.003 1.222 1.732 2.3 1.753A4.862 4.862 0 014 13.866 6.845 6.845 0 007.774 15c4.571 0 7.154-3.959 6.998-7.51.48-.356.898-.8 1.228-1.306z" fill="#FFF"/></g></svg>