<svg width="20" height="20" xmlns="http://www.w3.org/2000/svg"><g fill-rule="nonzero" fill="none"><rect fill="red" width="20" height="20" rx="4"/><path d="M15.753 7.252a1.47 1.47 0 00-1.058-1.007C13.756 6 10 6 10 6s-3.756 0-4.695.235c-.504.132-.92.527-1.058 1.017C4 8.146 4 10 4 10s0 1.863.247 2.748c.139.49.544.876 1.058 1.007C6.254 14 10 14 10 14s3.756 0 4.695-.235a1.47 1.47 0 001.058-1.007c.247-.895.247-2.749.247-2.749s.01-1.863-.247-2.757z" fill="#FFF"/><path fill="red" d="M8.8 11.714l3-1.714-3-1.714z"/></g></svg>